<svg width="56" height="56" viewBox="0 0 56 56" fill="none" xmlns="http://www.w3.org/2000/svg">
    <circle cx="28" cy="28" r="26.5" stroke="white" stroke-width="3"/>
    <path d="M36.9473 41H19.4043V37.5195L27.6836 28.6953C28.8203 27.4531 29.6582 26.3691 30.1973 25.4434C30.748 24.5176 31.0234 23.6387 31.0234 22.8066C31.0234 21.6699 30.7363 20.7793 30.1621 20.1348C29.5879 19.4785 28.7676 19.1504 27.7012 19.1504C26.5527 19.1504 25.6445 19.5488 24.9766 20.3457C24.3203 21.1309 23.9922 22.168 23.9922 23.457H18.8945C18.8945 21.8984 19.2637 20.4746 20.002 19.1855C20.752 17.8965 21.8066 16.8887 23.166 16.1621C24.5254 15.4238 26.0664 15.0547 27.7891 15.0547C30.4258 15.0547 32.4707 15.6875 33.9238 16.9531C35.3887 18.2188 36.1211 20.0059 36.1211 22.3145C36.1211 23.5801 35.793 24.8691 35.1367 26.1816C34.4805 27.4941 33.3555 29.0234 31.7617 30.7695L25.9434 36.9043H36.9473V41Z"
          fill="white"/>
</svg>
