<svg width="56" height="56" viewBox="0 0 56 56" fill="none" xmlns="http://www.w3.org/2000/svg">
    <circle cx="28" cy="28" r="26.5" stroke="white" stroke-width="3"/>
    <path d="M24.5723 25.9531H27.2793C28.5684 25.9531 29.5234 25.6309 30.1445 24.9863C30.7656 24.3418 31.0762 23.4863 31.0762 22.4199C31.0762 21.3887 30.7656 20.5859 30.1445 20.0117C29.5352 19.4375 28.6914 19.1504 27.6133 19.1504C26.6406 19.1504 25.8262 19.4199 25.1699 19.959C24.5137 20.4863 24.1855 21.1777 24.1855 22.0332H19.1055C19.1055 20.6973 19.4629 19.502 20.1777 18.4473C20.9043 17.3809 21.9121 16.5488 23.2012 15.9512C24.502 15.3535 25.9316 15.0547 27.4902 15.0547C30.1973 15.0547 32.3184 15.7051 33.8535 17.0059C35.3887 18.2949 36.1562 20.0762 36.1562 22.3496C36.1562 23.5215 35.7988 24.5996 35.084 25.584C34.3691 26.5684 33.4316 27.3242 32.2715 27.8516C33.7129 28.3672 34.7852 29.1406 35.4883 30.1719C36.2031 31.2031 36.5605 32.4219 36.5605 33.8281C36.5605 36.1016 35.7285 37.9238 34.0645 39.2949C32.4121 40.666 30.2207 41.3516 27.4902 41.3516C24.9355 41.3516 22.8438 40.6777 21.2148 39.3301C19.5977 37.9824 18.7891 36.2012 18.7891 33.9863H23.8691C23.8691 34.9473 24.2266 35.7324 24.9414 36.3418C25.668 36.9512 26.5586 37.2559 27.6133 37.2559C28.8203 37.2559 29.7637 36.9395 30.4434 36.3066C31.1348 35.6621 31.4805 34.8125 31.4805 33.7578C31.4805 31.2031 30.0742 29.9258 27.2617 29.9258H24.5723V25.9531Z"
          fill="white"/>
</svg>
