<svg width="50" height="50" viewBox="0 0 50 50" fill="none" xmlns="http://www.w3.org/2000/svg">
    <path fill-rule="evenodd" clip-rule="evenodd"
          d="M45.4853 0H4.51467C2.0316 0 0 2.02931 0 4.50958V45.4904C0 47.9707 2.0316 50 4.51467 50H45.4853C47.9684 50 50 47.9707 50 45.4904V4.50958C50 2.02931 47.9684 0 45.4853 0ZM6.60271 29.0868C5.64334 29.0868 4.85327 28.2976 4.85327 27.3393V11.7647H13.4312V27.3393C13.4312 28.2976 12.6411 29.0868 11.6817 29.0868H6.60271ZM4.85327 6.08794V10.7647H13.4312V6.08794C13.4312 5.12965 12.6411 4.34047 11.6817 4.34047H6.60271C5.64334 4.34047 4.85327 5.12965 4.85327 6.08794ZM36.0045 27.283V11.7647H44.6388V27.283C44.6388 28.2976 43.7923 29.1432 42.7765 29.1432H37.8668C36.851 29.1432 36.0045 28.2976 36.0045 27.283ZM36.0045 10.7647H44.6388V6.14431C44.6388 5.12965 43.7923 4.2841 42.7765 4.2841H37.8668C36.851 4.2841 36.0045 5.12965 36.0045 6.14431V10.7647ZM37.4154 44.9267C37.4154 46.1669 36.3995 47.1815 35.158 47.1815H18.6477V38.6133H35.1016C36.3431 38.6133 37.3589 39.628 37.3589 40.8681V44.9267H37.4154ZM17.6477 38.6133H14.842C13.6005 38.6133 12.5847 39.628 12.5847 40.8681V44.9267C12.5847 46.1669 13.6005 47.1815 14.842 47.1815H17.6477V38.6133Z"
          fill="currentColor"/>
</svg>
